<svg width="15" height="15" viewBox="0 0 15 15" fill="none" xmlns="http://www.w3.org/2000/svg">
<g clip-path="url(#clip0_234_5377)">
<path d="M1.66667 15C1.20833 15 0.815835 14.8367 0.489168 14.51C0.162501 14.1833 -0.000554141 13.7911 1.41483e-06 13.3333V1.66667C1.41483e-06 1.20833 0.163335 0.815835 0.490001 0.489168C0.816668 0.162501 1.20889 -0.000554141 1.66667 1.41483e-06H13.3333C13.7917 1.41483e-06 14.1842 0.163335 14.5108 0.490001C14.8375 0.816668 15.0006 1.20889 15 1.66667V13.3333C15 13.7917 14.8367 14.1842 14.51 14.5108C14.1833 14.8375 13.7911 15.0006 13.3333 15H1.66667ZM1.66667 13.3333H6.66667V1.66667H1.66667V13.3333ZM8.33333 13.3333H13.3333V7.5H8.33333V13.3333ZM8.33333 5.83333H13.3333V1.66667H8.33333V5.83333Z" fill="#111111"/>
</g>
<defs>
<clipPath id="clip0_234_5377">
<rect width="15" height="15" fill="white"/>
</clipPath>
</defs>
</svg>
