<svg width="17" height="17" viewBox="0 0 17 17" fill="none" xmlns="http://www.w3.org/2000/svg">
<g clip-path="url(#clip0_234_5360)">
<path d="M15.9141 9.14801L16.8672 3.92145C16.8838 3.83168 16.8798 3.73931 16.8554 3.65133C16.8311 3.56334 16.787 3.48206 16.7266 3.41364C16.6688 3.34299 16.5961 3.28603 16.5137 3.24686C16.4313 3.20768 16.3412 3.18726 16.25 3.18707H3.64844L3.26562 1.08551C3.21275 0.798592 3.06117 0.539209 2.83716 0.352294C2.61315 0.16538 2.33081 0.062711 2.03906 0.0620728H0.625C0.45924 0.0620728 0.300268 0.127921 0.183058 0.245131C0.065848 0.362341 0 0.521312 0 0.687073C0 0.852833 0.065848 1.0118 0.183058 1.12901C0.300268 1.24622 0.45924 1.31207 0.625 1.31207H2.03906L4.17969 13.1089C3.87449 13.3778 3.65027 13.7264 3.53223 14.1156C3.41418 14.5048 3.40698 14.9192 3.51143 15.3123C3.61588 15.7053 3.82785 16.0615 4.12353 16.3408C4.41921 16.62 4.78689 16.8113 5.18528 16.8932C5.58367 16.9751 5.99699 16.9442 6.37883 16.8042C6.76067 16.6641 7.0959 16.4204 7.34688 16.1004C7.59787 15.7803 7.75465 15.3967 7.79964 14.9924C7.84463 14.5882 7.77604 14.1795 7.60156 13.8121H11.7734C11.5703 14.2403 11.5118 14.723 11.6066 15.1874C11.7015 15.6518 11.9446 16.0728 12.2994 16.3871C12.6542 16.7013 13.1015 16.8919 13.574 16.93C14.0464 16.9681 14.5185 16.8517 14.9191 16.5984C15.3197 16.345 15.6271 15.9684 15.7952 15.5252C15.9633 15.0821 15.9829 14.5963 15.851 14.141C15.7191 13.6857 15.443 13.2856 15.0641 13.0008C14.6851 12.7161 14.224 12.5621 13.75 12.5621H5.35156L5.00781 10.6871H14.0703C14.5092 10.6869 14.934 10.5327 15.2709 10.2515C15.6079 9.97026 15.8354 9.57976 15.9141 9.14801ZM6.5625 14.7496C6.5625 14.935 6.50752 15.1162 6.4045 15.2704C6.30149 15.4246 6.15507 15.5448 5.98377 15.6157C5.81246 15.6867 5.62396 15.7052 5.4421 15.6691C5.26025 15.6329 5.0932 15.5436 4.96209 15.4125C4.83098 15.2814 4.74169 15.1143 4.70551 14.9325C4.66934 14.7506 4.68791 14.5621 4.75886 14.3908C4.82982 14.2195 4.94998 14.0731 5.10415 13.9701C5.25832 13.8671 5.43958 13.8121 5.625 13.8121C5.87364 13.8121 6.1121 13.9108 6.28791 14.0867C6.46373 14.2625 6.5625 14.5009 6.5625 14.7496ZM14.6875 14.7496C14.6875 14.935 14.6325 15.1162 14.5295 15.2704C14.4265 15.4246 14.2801 15.5448 14.1088 15.6157C13.9375 15.6867 13.749 15.7052 13.5671 15.6691C13.3852 15.6329 13.2182 15.5436 13.0871 15.4125C12.956 15.2814 12.8667 15.1143 12.8305 14.9325C12.7943 14.7506 12.8129 14.5621 12.8839 14.3908C12.9548 14.2195 13.075 14.0731 13.2292 13.9701C13.3833 13.8671 13.5646 13.8121 13.75 13.8121C13.9986 13.8121 14.2371 13.9108 14.4129 14.0867C14.5887 14.2625 14.6875 14.5009 14.6875 14.7496ZM3.875 4.43707H15.5L14.6875 8.92145C14.6618 9.06628 14.5857 9.1974 14.4729 9.29172C14.36 9.38603 14.2174 9.4375 14.0703 9.43707H4.78125L3.875 4.43707Z" fill="#111111"/>
</g>
<defs>
<clipPath id="clip0_234_5360">
<rect width="16.8773" height="16.8759" fill="white" transform="translate(0 0.0620728)"/>
</clipPath>
</defs>
</svg>
